<svg xmlns="http://www.w3.org/2000/svg" xmlns:xlink="http://www.w3.org/1999/xlink" version="1.1" x="0px" y="0px" viewBox="20 20 80 80" enable-background="new 0 0 100 100" xml:space="preserve"><path fill="#3A594D" d="M88.627,36.011c-0.021-0.062-0.053-0.115-0.085-0.171c-0.032-0.055-0.062-0.107-0.104-0.155  c-0.046-0.053-0.1-0.094-0.155-0.136c-0.034-0.025-0.058-0.062-0.095-0.083l-2.996-1.708V30.29c0-0.043-0.02-0.079-0.025-0.121  c-0.008-0.069-0.018-0.135-0.04-0.2c-0.021-0.062-0.051-0.115-0.083-0.171c-0.031-0.055-0.062-0.106-0.104-0.155  c-0.046-0.053-0.099-0.095-0.155-0.137c-0.032-0.025-0.055-0.06-0.091-0.081l-2.96-1.715v-3.471c0-0.044-0.02-0.081-0.024-0.124  c-0.009-0.068-0.018-0.135-0.04-0.2c-0.021-0.062-0.052-0.114-0.084-0.17c-0.032-0.055-0.063-0.107-0.105-0.156  c-0.046-0.053-0.099-0.093-0.154-0.135c-0.034-0.026-0.057-0.062-0.095-0.083l-3.501-2.004c-0.038-0.021-0.08-0.023-0.12-0.04  c-0.062-0.025-0.12-0.049-0.185-0.062c-0.067-0.014-0.133-0.016-0.2-0.015c-0.06,0.001-0.116,0.002-0.177,0.014  c-0.071,0.014-0.137,0.038-0.203,0.067c-0.036,0.016-0.074,0.017-0.109,0.036l-3,1.72l-2.51-1.433V18.21  c0-0.043-0.02-0.08-0.025-0.122c-0.008-0.068-0.018-0.135-0.04-0.2c-0.021-0.062-0.052-0.115-0.083-0.171  c-0.032-0.055-0.063-0.106-0.105-0.155c-0.046-0.053-0.099-0.095-0.154-0.137c-0.033-0.025-0.056-0.06-0.093-0.081l-3.502-2.02  c-0.037-0.021-0.079-0.023-0.117-0.039c-0.044-0.019-0.081-0.049-0.126-0.062c-0.023-0.006-0.048-0.001-0.071-0.006  c-0.063-0.012-0.125-0.012-0.189-0.012c-0.001,0-0.002,0-0.003,0c-0.04,0-0.079-0.013-0.119-0.008  c-0.022,0.003-0.043,0.017-0.065,0.021c-0.069,0.014-0.131,0.039-0.194,0.066c-0.012,0.005-0.024,0.007-0.035,0.013  c-0.026,0.012-0.055,0.012-0.08,0.026l-0.002,0.001c0,0.001-0.001,0-0.002,0.001l-0.087,0.051l-2.86,1.655l-2.498-1.424v-3.443  c0-0.043-0.019-0.08-0.023-0.122c-0.01-0.068-0.019-0.134-0.041-0.199c-0.021-0.062-0.051-0.116-0.084-0.173  c-0.031-0.054-0.062-0.104-0.104-0.152c-0.047-0.055-0.101-0.097-0.157-0.14c-0.032-0.024-0.054-0.059-0.09-0.079l-3.504-2.026  c-0.036-0.021-0.077-0.023-0.115-0.039c-0.065-0.027-0.128-0.054-0.197-0.067c-0.063-0.012-0.125-0.013-0.188-0.013  c-0.064,0-0.125,0.001-0.188,0.013c-0.068,0.014-0.13,0.039-0.194,0.065c-0.039,0.017-0.081,0.019-0.118,0.04l-3.001,1.735  l-2.953-1.731c-0.037-0.021-0.079-0.024-0.117-0.041c-0.065-0.027-0.127-0.054-0.197-0.067c-0.064-0.013-0.126-0.014-0.19-0.014  c-0.063,0-0.124,0-0.187,0.012c-0.07,0.014-0.134,0.04-0.2,0.068c-0.038,0.016-0.079,0.018-0.116,0.039l-3.002,1.736l-2.995-1.736  c-0.037-0.021-0.079-0.023-0.117-0.04c-0.065-0.027-0.127-0.053-0.196-0.066c-0.062-0.012-0.123-0.013-0.185-0.013  c-0.065,0-0.128,0.001-0.193,0.014c-0.066,0.013-0.127,0.038-0.19,0.064c-0.04,0.017-0.082,0.019-0.121,0.041l-3.502,2.026  c-0.037,0.021-0.058,0.056-0.091,0.08c-0.056,0.043-0.109,0.084-0.155,0.138c-0.042,0.049-0.074,0.101-0.105,0.155  c-0.032,0.056-0.061,0.109-0.083,0.17c-0.022,0.066-0.032,0.133-0.041,0.202c-0.005,0.041-0.024,0.077-0.024,0.12v3.451  l-2.459,1.437l-3.003-1.729c-0.036-0.021-0.076-0.022-0.114-0.038c-0.066-0.028-0.13-0.054-0.201-0.067  c-0.059-0.011-0.116-0.012-0.175-0.012c-0.068-0.001-0.134,0-0.202,0.014c-0.064,0.013-0.123,0.037-0.183,0.062  c-0.041,0.018-0.084,0.02-0.124,0.042l-3.499,2.02c-0.037,0.021-0.059,0.057-0.093,0.082c-0.056,0.042-0.108,0.083-0.154,0.136  c-0.042,0.049-0.073,0.101-0.105,0.155c-0.032,0.056-0.062,0.109-0.083,0.171c-0.022,0.065-0.032,0.132-0.04,0.2  c-0.006,0.042-0.025,0.079-0.025,0.122v3.445l-2.499,1.43l-2.954-1.715c-0.036-0.021-0.077-0.022-0.114-0.038  c-0.065-0.028-0.129-0.054-0.198-0.067c-0.061-0.012-0.119-0.013-0.18-0.014c-0.067-0.001-0.131,0.001-0.198,0.014  c-0.065,0.013-0.124,0.036-0.186,0.062c-0.041,0.017-0.083,0.019-0.122,0.041l-3.509,2.004c-0.038,0.021-0.06,0.057-0.094,0.082  c-0.056,0.042-0.109,0.083-0.156,0.136c-0.042,0.049-0.073,0.101-0.105,0.156c-0.002,0.003-0.004,0.006-0.006,0.009  c-0.031,0.056-0.061,0.107-0.081,0.168c-0.02,0.058-0.027,0.116-0.036,0.177c-0.007,0.048-0.029,0.093-0.029,0.142  c0,0.004,0.002,0.008,0.002,0.012v3.455l-2.994,1.716c-0.037,0.021-0.058,0.056-0.091,0.08c-0.057,0.043-0.111,0.084-0.158,0.138  c-0.042,0.049-0.072,0.101-0.104,0.155c-0.033,0.056-0.063,0.108-0.084,0.17c-0.023,0.066-0.032,0.133-0.041,0.202  c-0.006,0.041-0.025,0.078-0.025,0.122v3.468l-2.996,1.708c-0.038,0.021-0.061,0.058-0.095,0.083  c-0.056,0.042-0.109,0.083-0.155,0.136c-0.042,0.048-0.073,0.101-0.104,0.155c-0.032,0.056-0.063,0.109-0.084,0.171  c-0.023,0.065-0.032,0.131-0.041,0.2c-0.005,0.042-0.025,0.08-0.025,0.124v4.045c0,0.044,0.019,0.08,0.025,0.122  c0.009,0.069,0.018,0.136,0.041,0.202c0.021,0.062,0.051,0.114,0.083,0.169c0.032,0.056,0.063,0.108,0.105,0.157  c0.045,0.052,0.098,0.093,0.153,0.134c0.034,0.026,0.057,0.062,0.095,0.084l2.998,1.718v2.888l-2.997,1.712  c-0.038,0.021-0.06,0.057-0.094,0.082c-0.056,0.042-0.109,0.083-0.156,0.136c-0.042,0.049-0.073,0.101-0.105,0.156  c-0.032,0.055-0.062,0.108-0.084,0.17c-0.023,0.065-0.032,0.132-0.041,0.2c-0.005,0.043-0.025,0.08-0.025,0.124v4.051  c0,0.044,0.02,0.082,0.025,0.124c0.009,0.069,0.018,0.135,0.041,0.2c0.021,0.062,0.052,0.115,0.084,0.171  c0.032,0.055,0.062,0.107,0.104,0.155c0.046,0.053,0.1,0.094,0.155,0.136c0.034,0.025,0.057,0.062,0.095,0.083l2.996,1.708v2.888  l-2.998,1.716c-0.038,0.021-0.061,0.057-0.094,0.083c-0.056,0.042-0.109,0.082-0.155,0.135c-0.042,0.049-0.073,0.102-0.105,0.156  c-0.02,0.033-0.049,0.06-0.065,0.096c-0.013,0.028-0.015,0.058-0.025,0.087c-0.017,0.051-0.024,0.102-0.032,0.154  C9.903,60.429,9.88,60.478,9.88,60.53c0,0.008,0.004,0.014,0.004,0.021v4.028c0,0.044,0.02,0.082,0.025,0.124  c0.009,0.069,0.018,0.136,0.041,0.201c0.021,0.062,0.052,0.114,0.084,0.17c0.032,0.055,0.062,0.107,0.105,0.155  c0.046,0.054,0.1,0.094,0.156,0.137c0.034,0.025,0.057,0.061,0.095,0.082l2.996,1.705v3.467c0,0.043,0.019,0.08,0.025,0.122  c0.009,0.069,0.018,0.136,0.041,0.201c0.021,0.062,0.051,0.115,0.083,0.17c0.031,0.056,0.062,0.107,0.104,0.156  c0.046,0.053,0.1,0.094,0.155,0.136c0.034,0.025,0.056,0.061,0.093,0.082l2.995,1.72v3.419c0,0.042,0.019,0.078,0.024,0.119  c0.009,0.069,0.018,0.135,0.041,0.201c0.021,0.061,0.05,0.114,0.082,0.17c0.032,0.055,0.063,0.107,0.105,0.156  c0.046,0.053,0.099,0.095,0.154,0.137c0.033,0.025,0.054,0.059,0.09,0.08l3.509,2.051c0.003,0.002,0.006,0.002,0.008,0.004  c0.054,0.03,0.112,0.051,0.17,0.07c0.025,0.009,0.048,0.023,0.073,0.029c0.056,0.015,0.113,0.018,0.17,0.022  c0.027,0.002,0.055,0.011,0.083,0.011c0,0,0,0,0.001,0s0,0,0.001,0c0.021,0,0.042-0.007,0.062-0.008  c0.065-0.005,0.13-0.01,0.193-0.026c0.023-0.006,0.045-0.019,0.068-0.027c0.061-0.021,0.122-0.043,0.178-0.075  c0.003-0.002,0.006-0.002,0.009-0.004l2.945-1.749l2.5,1.464v3.426c0,0.042,0.019,0.078,0.024,0.119  c0.009,0.069,0.018,0.135,0.041,0.201c0.021,0.062,0.05,0.115,0.083,0.171c0.031,0.055,0.062,0.106,0.104,0.154  c0.046,0.054,0.099,0.096,0.155,0.138c0.032,0.025,0.053,0.059,0.089,0.08l3.499,2.043c0.002,0.001,0.004,0.001,0.006,0.003  c0.057,0.032,0.118,0.054,0.179,0.074c0.022,0.008,0.043,0.021,0.065,0.026c0.042,0.011,0.084,0.011,0.127,0.017  c0.042,0.006,0.084,0.017,0.126,0.017c0,0,0,0,0.001,0s0,0,0.001,0c0.052,0,0.104-0.012,0.157-0.021  c0.032-0.005,0.064-0.004,0.096-0.013c0.029-0.008,0.057-0.023,0.085-0.034c0.054-0.02,0.107-0.037,0.157-0.065  c0.002-0.001,0.005-0.002,0.008-0.003l2.999-1.747l2.46,1.454v3.429c0,0.042,0.019,0.078,0.024,0.118  c0.009,0.069,0.018,0.136,0.041,0.202c0.021,0.061,0.049,0.114,0.081,0.169c0.031,0.056,0.063,0.107,0.106,0.157  c0.045,0.052,0.096,0.093,0.151,0.135c0.033,0.025,0.055,0.061,0.092,0.082l3.502,2.051c0.003,0.002,0.006,0.002,0.009,0.004  c0.048,0.027,0.1,0.044,0.151,0.062c0.031,0.012,0.061,0.029,0.092,0.037c0.041,0.011,0.084,0.012,0.127,0.017  c0.042,0.006,0.083,0.017,0.125,0.017c0,0,0,0,0.001,0s0,0,0.001,0c0.035,0,0.07-0.01,0.105-0.014c0.049-0.006,0.1-0.007,0.147-0.02  c0.025-0.007,0.049-0.021,0.075-0.03c0.058-0.021,0.116-0.04,0.17-0.071c0.002-0.001,0.005-0.002,0.007-0.003l2.99-1.754  l2.999,1.755c0.003,0.002,0.006,0.002,0.009,0.004c0.052,0.029,0.108,0.049,0.165,0.068c0.026,0.01,0.051,0.024,0.078,0.031  c0.055,0.015,0.112,0.018,0.168,0.022c0.028,0.002,0.056,0.011,0.083,0.011c0,0,0,0,0.001,0s0,0,0.001,0  c0.023,0,0.045-0.008,0.068-0.009c0.063-0.005,0.126-0.009,0.187-0.024c0.027-0.008,0.052-0.022,0.079-0.032  c0.057-0.021,0.113-0.04,0.165-0.069c0.004-0.002,0.007-0.003,0.011-0.005l2.949-1.75l2.996,1.753  c0.002,0.001,0.005,0.002,0.007,0.003c0.055,0.031,0.114,0.052,0.173,0.072c0.023,0.008,0.047,0.022,0.07,0.028  c0.048,0.013,0.098,0.014,0.147,0.02c0.036,0.004,0.07,0.014,0.106,0.014l0,0c0.001,0,0.001,0,0.002,0  c0.034,0,0.069-0.01,0.104-0.014c0.051-0.006,0.101-0.007,0.149-0.02c0.022-0.006,0.045-0.02,0.067-0.027  c0.061-0.021,0.121-0.041,0.176-0.073c0.002-0.001,0.005-0.002,0.008-0.003l3.504-2.051c0.036-0.021,0.057-0.056,0.09-0.081  c0.056-0.042,0.107-0.084,0.153-0.137c0.042-0.049,0.073-0.101,0.105-0.155c0.031-0.056,0.061-0.109,0.081-0.17  c0.023-0.066,0.033-0.133,0.041-0.202c0.005-0.041,0.023-0.076,0.023-0.118v-3.426l2.497-1.457l2.944,1.743  c0.003,0.002,0.006,0.002,0.01,0.004c0.053,0.03,0.109,0.051,0.166,0.07c0.027,0.01,0.052,0.024,0.078,0.032  c0.059,0.015,0.118,0.019,0.178,0.023c0.025,0.002,0.051,0.01,0.076,0.01c0.001,0,0.001,0,0.002,0l0,0  c0.024,0,0.048-0.008,0.071-0.01c0.062-0.004,0.123-0.008,0.183-0.023c0.017-0.005,0.033-0.015,0.051-0.021  c0.066-0.021,0.132-0.046,0.192-0.08c0.002-0.002,0.005-0.002,0.007-0.003l3.502-2.043c0.035-0.021,0.057-0.055,0.088-0.079  c0.057-0.043,0.109-0.085,0.156-0.138c0.042-0.049,0.073-0.101,0.104-0.156c0.032-0.055,0.062-0.108,0.082-0.17  c0.022-0.066,0.032-0.132,0.041-0.201c0.005-0.041,0.024-0.077,0.024-0.119v-3.426l2.51-1.467l2.992,1.755  c0.002,0.001,0.004,0.002,0.007,0.003c0.056,0.032,0.115,0.053,0.176,0.074c0.022,0.008,0.045,0.021,0.069,0.027  c0.049,0.013,0.1,0.015,0.15,0.02c0.034,0.004,0.068,0.014,0.102,0.014c0.001,0,0.001,0,0.002,0l0,0  c0.043,0,0.084-0.011,0.126-0.017c0.042-0.005,0.086-0.006,0.127-0.017c0.031-0.008,0.061-0.025,0.091-0.036  c0.052-0.02,0.104-0.036,0.152-0.063c0.002-0.002,0.006-0.002,0.009-0.004l3.501-2.051c0.037-0.021,0.059-0.057,0.092-0.082  c0.055-0.042,0.105-0.083,0.151-0.135c0.042-0.05,0.073-0.102,0.105-0.157c0.032-0.055,0.061-0.108,0.081-0.17  c0.023-0.065,0.032-0.132,0.041-0.2c0.005-0.041,0.023-0.077,0.023-0.119v-3.422l2.961-1.719c0.037-0.021,0.059-0.057,0.092-0.082  c0.056-0.042,0.107-0.083,0.152-0.136c0.043-0.049,0.074-0.101,0.105-0.156c0.033-0.056,0.062-0.108,0.083-0.17  c0.022-0.065,0.032-0.132,0.04-0.2c0.006-0.042,0.025-0.078,0.025-0.121v-3.467l2.995-1.705c0.038-0.021,0.061-0.057,0.095-0.082  c0.057-0.043,0.109-0.083,0.156-0.137c0.042-0.048,0.072-0.101,0.104-0.155c0.032-0.056,0.063-0.108,0.084-0.17  c0.023-0.065,0.032-0.132,0.041-0.201c0.005-0.042,0.024-0.08,0.024-0.124v-4.047c0-0.062-0.023-0.116-0.035-0.175  c-0.012-0.071-0.015-0.146-0.043-0.212c-0.15-0.36-0.506-0.613-0.922-0.613c-0.236,0-0.445,0.095-0.617,0.232  c-0.026,0.021-0.061,0.03-0.084,0.054c-0.002,0.002-0.003,0.004-0.004,0.006c-0.092,0.092-0.166,0.2-0.217,0.321  c-0.051,0.122-0.08,0.253-0.08,0.384c0,0.003,0.002,0.006,0.002,0.01v3.458l-2.995,1.705c-0.038,0.021-0.061,0.057-0.095,0.082  c-0.057,0.043-0.109,0.083-0.156,0.137c-0.042,0.048-0.072,0.101-0.104,0.154c-0.032,0.056-0.062,0.109-0.084,0.171  c-0.023,0.065-0.032,0.132-0.041,0.201c-0.005,0.042-0.024,0.08-0.024,0.124v3.473l-2.961,1.719  c-0.037,0.021-0.059,0.057-0.092,0.082c-0.056,0.042-0.107,0.083-0.153,0.136c-0.042,0.049-0.073,0.101-0.104,0.155  c-0.032,0.056-0.062,0.109-0.083,0.171c-0.022,0.065-0.032,0.132-0.04,0.2c-0.006,0.042-0.025,0.078-0.025,0.121v3.425l-2.501,1.465  l-2.991-1.754c-0.039-0.023-0.083-0.025-0.124-0.043c-0.062-0.026-0.122-0.052-0.188-0.065c-0.068-0.014-0.133-0.014-0.2-0.013  c-0.06,0-0.117,0-0.177,0.011c-0.072,0.014-0.138,0.041-0.205,0.07c-0.038,0.016-0.078,0.018-0.115,0.039l-3.511,2.051  c-0.036,0.021-0.058,0.055-0.09,0.08c-0.056,0.042-0.108,0.084-0.154,0.137c-0.042,0.049-0.073,0.102-0.104,0.156  c-0.032,0.055-0.062,0.108-0.082,0.17c-0.023,0.066-0.032,0.132-0.041,0.201c-0.005,0.041-0.023,0.077-0.023,0.119v3.426  l-2.498,1.457l-2.453-1.453v-3.43c0-0.042-0.02-0.078-0.024-0.119c-0.006-0.046,0.001-0.093-0.011-0.138  c-0.006-0.024-0.022-0.044-0.031-0.067c-0.021-0.06-0.049-0.111-0.08-0.165c-0.021-0.037-0.03-0.078-0.057-0.112  c-0.014-0.019-0.036-0.031-0.052-0.049c-0.044-0.051-0.095-0.09-0.149-0.131c-0.032-0.025-0.055-0.061-0.091-0.082L63.77,77.81l0,0  l-0.001-0.001l-2.997-1.755v-2.846l2.999-1.72c0.037-0.021,0.06-0.056,0.093-0.081c0.057-0.042,0.109-0.084,0.156-0.137  c0.042-0.049,0.072-0.101,0.104-0.155c0.032-0.056,0.062-0.109,0.083-0.171c0.023-0.065,0.032-0.132,0.041-0.201  c0.006-0.042,0.025-0.079,0.025-0.122v-3.472l2.949-1.703c0.037-0.021,0.059-0.057,0.093-0.082c0.056-0.042,0.107-0.083,0.153-0.136  c0.043-0.049,0.074-0.102,0.105-0.156c0.032-0.056,0.062-0.108,0.083-0.17c0.022-0.065,0.032-0.132,0.04-0.201  c0.006-0.041,0.025-0.078,0.025-0.121v-3.467l2.998-1.716c0.038-0.021,0.061-0.057,0.095-0.083c0.056-0.042,0.108-0.082,0.154-0.135  c0.042-0.049,0.073-0.102,0.105-0.156c0.032-0.056,0.062-0.108,0.083-0.17c0.023-0.066,0.032-0.132,0.041-0.201  c0.006-0.042,0.025-0.079,0.025-0.123v-3.467l3.004-1.709c0.038-0.021,0.061-0.057,0.095-0.082c0.057-0.042,0.11-0.083,0.156-0.136  c0.043-0.049,0.074-0.102,0.106-0.157c0.031-0.055,0.062-0.107,0.083-0.168c0.023-0.066,0.032-0.133,0.041-0.202  c0.005-0.042,0.024-0.08,0.024-0.124v-4.051c0-0.044-0.02-0.081-0.024-0.123c-0.009-0.069-0.018-0.137-0.041-0.203  c-0.021-0.061-0.051-0.113-0.083-0.168c-0.032-0.056-0.063-0.108-0.106-0.157c-0.046-0.053-0.099-0.093-0.153-0.134  c-0.035-0.026-0.058-0.062-0.096-0.084l-3.512-2c-0.035-0.021-0.074-0.021-0.111-0.037c-0.064-0.027-0.128-0.052-0.197-0.064  c-0.062-0.012-0.121-0.014-0.184-0.014c-0.064-0.001-0.127,0.002-0.191,0.014c-0.068,0.014-0.13,0.038-0.194,0.065  c-0.037,0.016-0.077,0.017-0.112,0.037l-3.002,1.715l-2.952-1.712c-0.477-0.276-1.089-0.114-1.366,0.363  c-0.277,0.479-0.115,1.09,0.363,1.367l2.951,1.711v2.898l-2.951,1.707c-0.478,0.276-0.641,0.888-0.364,1.366  c0.186,0.32,0.521,0.499,0.866,0.499c0.17,0,0.343-0.043,0.5-0.135l3.449-1.996c0.037-0.021,0.059-0.056,0.092-0.08  c0.056-0.043,0.109-0.084,0.154-0.138c0.043-0.049,0.074-0.101,0.105-0.156c0.032-0.055,0.062-0.108,0.083-0.169  c0.022-0.066,0.032-0.133,0.04-0.202c0.006-0.041,0.025-0.077,0.025-0.12v-3.471l2.502-1.429l2.51,1.431v2.887l-3.004,1.709  c-0.038,0.021-0.061,0.057-0.095,0.082c-0.056,0.042-0.11,0.083-0.156,0.136c-0.043,0.049-0.073,0.102-0.105,0.156  c-0.032,0.056-0.062,0.108-0.084,0.169c-0.023,0.066-0.032,0.133-0.041,0.202c-0.005,0.042-0.024,0.08-0.024,0.124v3.469  l-2.999,1.716c-0.038,0.021-0.061,0.057-0.095,0.083c-0.056,0.042-0.108,0.082-0.154,0.135c-0.043,0.049-0.073,0.102-0.105,0.156  c-0.032,0.056-0.062,0.108-0.084,0.17c-0.022,0.066-0.031,0.132-0.04,0.201c-0.006,0.042-0.024,0.079-0.024,0.123v3.47l-2.949,1.703  c-0.038,0.021-0.061,0.057-0.094,0.082c-0.055,0.042-0.107,0.083-0.153,0.136c-0.042,0.049-0.073,0.101-0.105,0.156  c-0.032,0.055-0.062,0.108-0.083,0.17c-0.022,0.065-0.031,0.132-0.041,0.2c-0.005,0.042-0.023,0.079-0.023,0.122v3.47l-2.502,1.435  l-2.504-1.435v-2.888l2.998-1.705c0.48-0.272,0.648-0.883,0.375-1.363c-0.271-0.479-0.883-0.647-1.363-0.375l-3.504,1.992  c-0.037,0.021-0.06,0.057-0.094,0.082c-0.057,0.042-0.11,0.083-0.156,0.136c-0.043,0.049-0.074,0.102-0.105,0.156  c-0.032,0.056-0.062,0.108-0.084,0.169c-0.023,0.066-0.032,0.133-0.041,0.202c-0.006,0.042-0.025,0.08-0.025,0.124v4.049  c0,0.043,0.02,0.08,0.025,0.123c0.009,0.068,0.018,0.135,0.041,0.201c0.021,0.062,0.051,0.114,0.084,0.17  c0.031,0.055,0.062,0.106,0.104,0.154c0.047,0.055,0.102,0.096,0.158,0.139c0.033,0.024,0.055,0.06,0.092,0.08l3,1.72v2.884  l-3,1.718c-0.038,0.021-0.061,0.057-0.094,0.083c-0.027,0.02-0.06,0.033-0.084,0.056c-0.01,0.009-0.023,0.012-0.033,0.021  c-0.018,0.018-0.024,0.041-0.04,0.06c-0.042,0.048-0.071,0.1-0.103,0.154c-0.022,0.037-0.055,0.067-0.072,0.107  c-0.008,0.021-0.007,0.045-0.014,0.066c-0.022,0.064-0.03,0.129-0.039,0.196c-0.006,0.043-0.025,0.08-0.025,0.124v3.425  l-3.008,1.754c-0.478,0.278-0.639,0.891-0.36,1.368c0.186,0.318,0.521,0.496,0.864,0.496c0.172,0,0.345-0.044,0.503-0.136  l3.505-2.043c0.037-0.021,0.059-0.057,0.092-0.081c0.055-0.043,0.107-0.084,0.152-0.136c0.043-0.05,0.074-0.102,0.105-0.157  c0.032-0.055,0.062-0.108,0.082-0.17c0.023-0.065,0.032-0.132,0.041-0.201c0.005-0.041,0.023-0.077,0.023-0.119v-3.42l2.504-1.434  l2.502,1.434v2.846l-3.006,1.754c-0.035,0.021-0.056,0.055-0.088,0.078c-0.057,0.043-0.11,0.086-0.156,0.14  c-0.042,0.049-0.072,0.1-0.104,0.153c-0.033,0.057-0.062,0.11-0.084,0.173c-0.021,0.065-0.031,0.131-0.04,0.2  c-0.005,0.041-0.024,0.077-0.024,0.119v3.427l-2.504,1.465l-3-1.755c-0.04-0.023-0.086-0.026-0.128-0.044  c-0.062-0.026-0.122-0.052-0.188-0.064c-0.066-0.014-0.13-0.013-0.196-0.012c-0.062,0-0.12,0-0.182,0.012  c-0.071,0.014-0.134,0.041-0.2,0.069c-0.039,0.018-0.082,0.02-0.12,0.042l-2.949,1.75l-2.995-1.753  c-0.039-0.022-0.081-0.024-0.121-0.041c-0.065-0.028-0.128-0.055-0.197-0.068c-0.063-0.012-0.124-0.012-0.187-0.012  c-0.064,0-0.126,0-0.19,0.013c-0.07,0.014-0.133,0.04-0.198,0.068c-0.039,0.017-0.081,0.019-0.118,0.041l-2.989,1.754l-2.502-1.465  v-3.427c0-0.041-0.019-0.076-0.023-0.116c-0.008-0.069-0.018-0.136-0.041-0.202c-0.021-0.061-0.049-0.114-0.081-0.169  c-0.032-0.056-0.064-0.108-0.106-0.157c-0.045-0.053-0.096-0.094-0.15-0.136c-0.033-0.025-0.054-0.06-0.09-0.081l-2.965-1.753  v-2.859l2.966-1.76c0.036-0.021,0.057-0.056,0.089-0.08c0.055-0.042,0.106-0.084,0.151-0.137c0.042-0.049,0.074-0.101,0.105-0.156  c0.032-0.056,0.061-0.109,0.081-0.171c0.022-0.065,0.032-0.131,0.04-0.199c0.005-0.04,0.024-0.075,0.024-0.117v-3.998  c0-0.553-0.448-1-1-1s-1,0.447-1,1v3.429l-2.966,1.76c-0.036,0.021-0.057,0.056-0.089,0.08c-0.055,0.042-0.106,0.084-0.151,0.137  c-0.042,0.049-0.074,0.101-0.105,0.156c-0.032,0.055-0.061,0.109-0.081,0.171c-0.022,0.065-0.032,0.131-0.04,0.199  c-0.005,0.04-0.024,0.075-0.024,0.117v3.425l-2.506,1.46l-2.499-1.459V79.25l3.005-1.761c0.036-0.021,0.056-0.055,0.088-0.079  c0.056-0.043,0.109-0.085,0.155-0.139c0.042-0.049,0.072-0.1,0.104-0.154c0.032-0.056,0.062-0.109,0.083-0.172  c0.022-0.065,0.032-0.131,0.041-0.199c0.005-0.041,0.024-0.077,0.024-0.119v-3.418l3.003-1.72c0.039-0.022,0.062-0.058,0.096-0.084  c0.055-0.041,0.107-0.082,0.152-0.134c0.043-0.049,0.074-0.102,0.106-0.157c0.032-0.055,0.062-0.108,0.083-0.169  c0.023-0.065,0.032-0.132,0.041-0.201c0.005-0.042,0.025-0.079,0.025-0.123V67.15l2.459-1.418l2.499,1.422v3.467  c0,0.043,0.019,0.08,0.025,0.122c0.009,0.069,0.018,0.136,0.04,0.201c0.021,0.062,0.052,0.115,0.084,0.171  c0.032,0.055,0.062,0.106,0.104,0.154c0.046,0.054,0.1,0.095,0.155,0.137c0.034,0.025,0.056,0.061,0.093,0.082l2.993,1.72v2.847  l-3.001,1.761c-0.036,0.021-0.056,0.055-0.088,0.079c-0.056,0.043-0.109,0.085-0.155,0.139c-0.042,0.048-0.073,0.1-0.105,0.154  c-0.032,0.056-0.061,0.109-0.082,0.171c-0.022,0.065-0.032,0.132-0.041,0.201c-0.005,0.04-0.024,0.076-0.024,0.118v4  c0,0.042,0.019,0.078,0.024,0.119c0.009,0.069,0.018,0.135,0.041,0.201c0.021,0.061,0.05,0.114,0.082,0.17  c0.032,0.055,0.063,0.107,0.105,0.156c0.046,0.053,0.099,0.095,0.154,0.137c0.033,0.025,0.054,0.059,0.09,0.08l3.495,2.043  c0.002,0.001,0.004,0.001,0.006,0.003c0.056,0.031,0.115,0.052,0.175,0.072c0.023,0.009,0.046,0.022,0.069,0.028  c0.04,0.011,0.081,0.011,0.121,0.016c0.044,0.006,0.088,0.018,0.133,0.018c0,0,0,0,0.001,0s0,0,0.001,0  c0.037,0,0.074-0.011,0.111-0.015c0.047-0.005,0.096-0.006,0.143-0.019c0.024-0.006,0.047-0.021,0.07-0.028  c0.059-0.021,0.117-0.04,0.171-0.071c0.002-0.001,0.005-0.002,0.008-0.003l3.504-2.043c0.477-0.278,0.638-0.891,0.36-1.368  c-0.278-0.477-0.89-0.637-1.368-0.36l-3,1.749l-2.495-1.458V79.25l2.496-1.464l2.999,1.755c0.159,0.093,0.333,0.137,0.504,0.137  c0.344,0,0.678-0.177,0.864-0.495c0.279-0.477,0.119-1.089-0.358-1.368l-3.009-1.761v-3.425c0-0.043-0.019-0.08-0.025-0.122  c-0.009-0.069-0.018-0.136-0.04-0.201c-0.021-0.062-0.052-0.115-0.084-0.171c-0.032-0.055-0.062-0.106-0.104-0.154  c-0.046-0.054-0.1-0.095-0.156-0.137c-0.033-0.025-0.055-0.061-0.093-0.082l-2.993-1.72v-3.47c0-0.044-0.02-0.082-0.025-0.124  c-0.009-0.069-0.018-0.136-0.041-0.201c-0.021-0.062-0.052-0.115-0.084-0.171c-0.032-0.054-0.062-0.106-0.105-0.154  c-0.046-0.054-0.1-0.094-0.156-0.137c-0.034-0.025-0.057-0.061-0.095-0.082l-2.997-1.705v-2.885l2.999-1.716  c0.038-0.021,0.061-0.057,0.095-0.083c0.056-0.042,0.108-0.082,0.154-0.135c0.042-0.049,0.073-0.102,0.105-0.156  c0.032-0.056,0.062-0.108,0.083-0.17c0.023-0.066,0.032-0.132,0.041-0.201c0.006-0.042,0.025-0.079,0.025-0.123V54.48  c0-0.044-0.02-0.082-0.025-0.124c-0.009-0.069-0.018-0.135-0.041-0.201c-0.021-0.061-0.051-0.114-0.083-0.169  c-0.032-0.056-0.063-0.108-0.106-0.157c-0.045-0.052-0.099-0.093-0.154-0.134c-0.034-0.026-0.057-0.062-0.096-0.084l-2.997-1.708  v-2.89l2.501-1.428l2.999,1.716c0,0,0,0,0.001,0c0.058,0.033,0.121,0.055,0.185,0.076c0.102,0.033,0.206,0.056,0.31,0.056  c0,0,0,0,0.001,0s0,0,0.001,0c0.085,0,0.17-0.011,0.254-0.033s0.166-0.056,0.242-0.1l3.003-1.714l2.459,1.423v3.475  c0,0.553,0.447,1,1,1c0.552,0,1-0.447,1-1v-4.051c0-0.043-0.02-0.08-0.025-0.121c-0.008-0.069-0.018-0.135-0.04-0.2  c-0.021-0.062-0.051-0.115-0.083-0.171c-0.031-0.055-0.062-0.106-0.104-0.155c-0.046-0.054-0.1-0.095-0.155-0.138  c-0.033-0.024-0.055-0.059-0.092-0.08l-3.455-2c-0.036-0.021-0.076-0.022-0.113-0.038c-0.065-0.028-0.127-0.054-0.196-0.067  c-0.065-0.013-0.127-0.015-0.192-0.014c-0.062-0.001-0.12,0-0.182,0.012c-0.072,0.014-0.137,0.039-0.204,0.068  c-0.036,0.016-0.075,0.017-0.109,0.036l-3.007,1.717l-3-1.717c-0.035-0.021-0.075-0.021-0.111-0.037  c-0.065-0.027-0.127-0.052-0.196-0.065c-0.064-0.013-0.125-0.015-0.189-0.015c-0.062,0-0.122,0.002-0.185,0.014  c-0.07,0.014-0.134,0.039-0.2,0.066c-0.037,0.016-0.076,0.017-0.111,0.037l-3.002,1.715l-2.459-1.423v-2.896l2.459-1.428l3.001,1.72  c0,0,0.001,0,0.002,0.001c0.044,0.025,0.093,0.039,0.141,0.058c0.115,0.044,0.234,0.073,0.353,0.073c0,0,0,0,0.001,0s0,0,0.001,0  c0.089,0,0.179-0.014,0.268-0.039c0.08-0.021,0.156-0.053,0.228-0.093c0-0.001,0-0.001,0.001-0.001l2.998-1.721l3.007,1.722  c0.001,0.001,0.002,0.001,0.003,0.001c0.036,0.021,0.076,0.031,0.114,0.047c0.123,0.051,0.25,0.084,0.378,0.084c0,0,0,0,0.001,0  s0,0,0.001,0c0.106,0,0.211-0.023,0.315-0.058c0.062-0.021,0.124-0.043,0.182-0.075c0.001-0.001,0.003-0.001,0.004-0.002  l3.456-2.006c0.037-0.021,0.059-0.057,0.092-0.082c0.056-0.042,0.107-0.083,0.152-0.136c0.043-0.049,0.074-0.101,0.105-0.156  c0.033-0.055,0.062-0.108,0.083-0.17c0.022-0.065,0.032-0.132,0.04-0.2c0.006-0.042,0.025-0.078,0.025-0.121v-3.463l2.504-1.427  l3.01,1.714c0.156,0.089,0.326,0.131,0.494,0.131l0,0c0.001,0,0.001,0,0.002,0c0.168,0,0.338-0.042,0.494-0.131l3.5-1.996  c0.039-0.021,0.062-0.058,0.096-0.083c0.056-0.042,0.109-0.083,0.155-0.136c0.042-0.048,0.073-0.101,0.104-0.155  c0.032-0.056,0.062-0.109,0.084-0.171c0.023-0.065,0.032-0.131,0.041-0.2c0.006-0.042,0.025-0.08,0.025-0.124v-3.474l2.951-1.715  c0.036-0.021,0.058-0.055,0.09-0.08c0.057-0.042,0.109-0.084,0.156-0.138c0.041-0.049,0.072-0.101,0.104-0.155  c0.032-0.055,0.062-0.108,0.083-0.17c0.022-0.066,0.032-0.132,0.041-0.201c0.005-0.041,0.024-0.078,0.024-0.12v-4.047  c0-0.553-0.448-1-1-1c-0.553,0-1,0.447-1,1v3.472l-2.952,1.715c-0.036,0.021-0.058,0.055-0.09,0.079  c-0.057,0.043-0.109,0.085-0.155,0.139c-0.043,0.049-0.073,0.101-0.105,0.155c-0.031,0.055-0.061,0.108-0.082,0.17  c-0.022,0.066-0.032,0.132-0.041,0.201c-0.005,0.041-0.023,0.078-0.023,0.12v3.468l-2.502,1.426l-2.504-1.426V30.29  c0-0.044-0.02-0.081-0.024-0.124c-0.009-0.068-0.018-0.135-0.04-0.2c-0.021-0.062-0.053-0.115-0.084-0.171  c-0.032-0.055-0.063-0.106-0.105-0.155c-0.046-0.053-0.099-0.093-0.154-0.135c-0.034-0.026-0.057-0.062-0.095-0.083l-3.001-1.716  v-3.467c0-0.043-0.02-0.079-0.024-0.12c-0.009-0.069-0.019-0.136-0.041-0.201c-0.021-0.062-0.05-0.115-0.083-0.17  c-0.031-0.056-0.062-0.107-0.105-0.156c-0.045-0.053-0.097-0.094-0.152-0.136c-0.033-0.025-0.055-0.061-0.092-0.082l-2.958-1.715  v-2.876l2.458-1.437l2.501,1.44v3.448c0,0.044,0.02,0.08,0.025,0.122c0.009,0.07,0.018,0.137,0.041,0.203  c0.021,0.061,0.051,0.113,0.083,0.168c0.032,0.056,0.063,0.108,0.105,0.157c0.046,0.053,0.099,0.093,0.154,0.135  c0.034,0.026,0.057,0.062,0.095,0.083l3,1.716v3.467c0,0.553,0.448,1,1,1c0.553,0,1-0.447,1-1v-4.047  c0-0.044-0.019-0.081-0.024-0.122c-0.009-0.07-0.018-0.137-0.04-0.203c-0.021-0.061-0.052-0.113-0.084-0.168  c-0.031-0.056-0.062-0.108-0.105-0.157c-0.046-0.053-0.099-0.093-0.154-0.135c-0.034-0.026-0.057-0.062-0.095-0.083l-3.001-1.716  V18.21c0-0.043-0.019-0.079-0.023-0.121c-0.01-0.069-0.019-0.136-0.041-0.202c-0.021-0.061-0.051-0.114-0.083-0.17  c-0.032-0.055-0.063-0.106-0.105-0.155c-0.046-0.054-0.1-0.095-0.156-0.138c-0.033-0.024-0.055-0.059-0.091-0.08l-3.506-2.02  c-0.037-0.021-0.078-0.023-0.117-0.039c-0.064-0.027-0.126-0.053-0.194-0.066c-0.066-0.013-0.13-0.013-0.196-0.012  c-0.061,0-0.119,0.001-0.179,0.013c-0.071,0.014-0.136,0.04-0.202,0.068c-0.037,0.017-0.078,0.018-0.114,0.039l-3.455,2.02  c-0.036,0.021-0.057,0.055-0.09,0.08c-0.056,0.042-0.108,0.084-0.154,0.138c-0.042,0.048-0.073,0.101-0.105,0.155  c-0.032,0.056-0.061,0.108-0.082,0.17c-0.023,0.066-0.032,0.132-0.041,0.201c-0.005,0.041-0.024,0.077-0.024,0.119v4.025  c0,0.043,0.019,0.079,0.024,0.12c0.009,0.068,0.018,0.133,0.039,0.197c0.008,0.023,0.006,0.048,0.015,0.069  c0.016,0.04,0.048,0.068,0.069,0.104c0.032,0.056,0.063,0.107,0.106,0.156c0.045,0.053,0.097,0.094,0.152,0.136  c0.034,0.025,0.056,0.061,0.093,0.082l2.958,1.715v3.471c0,0.044,0.02,0.081,0.024,0.124c0.009,0.068,0.018,0.135,0.04,0.2  c0.021,0.062,0.053,0.115,0.084,0.17c0.032,0.056,0.063,0.107,0.105,0.156c0.046,0.052,0.099,0.093,0.154,0.135  c0.034,0.026,0.057,0.062,0.095,0.083l3.001,1.716v2.887l-3,1.709c-0.038,0.021-0.061,0.058-0.096,0.084  c-0.055,0.041-0.107,0.082-0.153,0.134c-0.043,0.049-0.074,0.102-0.106,0.156c-0.031,0.056-0.062,0.108-0.083,0.17  c-0.023,0.065-0.032,0.132-0.041,0.201c-0.005,0.043-0.024,0.08-0.024,0.124v3.469l-2.459,1.428l-3.004-1.72  c-0.037-0.021-0.077-0.022-0.115-0.038c-0.063-0.027-0.125-0.051-0.193-0.064c-0.064-0.013-0.125-0.014-0.19-0.014  c-0.063,0-0.124,0.002-0.186,0.014c-0.069,0.014-0.131,0.038-0.195,0.065c-0.038,0.016-0.078,0.018-0.114,0.038l-2.998,1.72  L39.807,39.8v-3.465c0-0.043-0.019-0.08-0.024-0.121c-0.009-0.069-0.018-0.136-0.041-0.201c-0.021-0.062-0.051-0.114-0.083-0.17  c-0.031-0.055-0.063-0.107-0.105-0.156c-0.046-0.053-0.098-0.094-0.153-0.136c-0.034-0.025-0.056-0.061-0.093-0.082l-2.956-1.707  v-2.896l2.459-1.426l3.002,1.718c0.157,0.09,0.327,0.132,0.496,0.132c0.347,0,0.684-0.181,0.869-0.503  c0.274-0.479,0.108-1.091-0.372-1.365l-3.502-2.004c-0.037-0.021-0.078-0.022-0.116-0.039c-0.064-0.026-0.127-0.051-0.195-0.064  c-0.063-0.012-0.124-0.013-0.187-0.013c-0.064,0-0.126,0.002-0.19,0.015c-0.068,0.013-0.129,0.038-0.192,0.064  c-0.039,0.017-0.08,0.019-0.117,0.04l-3.456,2.004c-0.037,0.021-0.059,0.056-0.092,0.081c-0.056,0.042-0.108,0.084-0.154,0.137  c-0.042,0.049-0.073,0.101-0.105,0.155c-0.032,0.056-0.062,0.109-0.083,0.171c-0.022,0.065-0.032,0.132-0.041,0.201  c-0.005,0.041-0.024,0.077-0.024,0.12v4.043c0,0.002-0.001,0.004-0.001,0.007c0,0.045,0.021,0.087,0.027,0.131  c0.008,0.064,0.017,0.126,0.038,0.188c0.008,0.021,0.006,0.044,0.015,0.064c0.014,0.033,0.04,0.058,0.057,0.089  c0.005,0.008,0.011,0.015,0.015,0.022c0.029,0.05,0.055,0.099,0.092,0.144C34.611,35,34.62,35.029,34.64,35.05  c0.038,0.036,0.089,0.055,0.132,0.085c0.029,0.021,0.048,0.052,0.08,0.07l2.956,1.707v2.892l-2.958,1.717  c-0.037,0.021-0.059,0.057-0.092,0.082c-0.056,0.042-0.107,0.083-0.153,0.136c-0.042,0.049-0.073,0.101-0.105,0.156  c-0.032,0.055-0.062,0.108-0.083,0.17c-0.022,0.065-0.032,0.131-0.041,0.2c-0.005,0.042-0.024,0.078-0.024,0.121v4.048  c0,0.043,0.019,0.079,0.024,0.12c0.008,0.069,0.018,0.136,0.041,0.202c0.021,0.061,0.051,0.114,0.083,0.169  c0.032,0.056,0.063,0.107,0.105,0.156c0.046,0.054,0.099,0.095,0.155,0.138c0.033,0.024,0.055,0.059,0.091,0.08l2.957,1.711v3.475  c0,0.044,0.02,0.082,0.025,0.124c0.009,0.069,0.018,0.136,0.041,0.201c0.021,0.061,0.051,0.114,0.083,0.169  c0.032,0.056,0.063,0.108,0.106,0.157c0.045,0.052,0.098,0.093,0.153,0.134c0.035,0.026,0.058,0.062,0.096,0.084l2.997,1.708v2.888  l-2.999,1.716c-0.038,0.021-0.061,0.057-0.094,0.083c-0.056,0.042-0.109,0.082-0.155,0.135c-0.042,0.049-0.073,0.102-0.105,0.156  c-0.032,0.056-0.062,0.108-0.083,0.17c-0.023,0.066-0.032,0.132-0.041,0.201c-0.006,0.042-0.025,0.079-0.025,0.123v3.469  l-2.459,1.418l-3.008-1.709c-0.48-0.272-1.09-0.104-1.364,0.375c-0.272,0.48-0.104,1.091,0.375,1.363l3,1.705v2.887l-3.003,1.72  c-0.039,0.022-0.061,0.058-0.096,0.084c-0.055,0.041-0.107,0.082-0.152,0.134c-0.043,0.049-0.074,0.102-0.106,0.157  c-0.032,0.055-0.062,0.108-0.083,0.169c-0.023,0.065-0.032,0.132-0.041,0.201c-0.005,0.042-0.025,0.079-0.025,0.123v3.426  l-2.499,1.464l-2.998-1.755c-0.039-0.022-0.083-0.025-0.123-0.042c-0.065-0.028-0.128-0.055-0.198-0.068  c-0.063-0.012-0.124-0.011-0.187-0.011c-0.064,0-0.125-0.001-0.189,0.012c-0.072,0.015-0.136,0.043-0.203,0.072  c-0.038,0.017-0.079,0.019-0.116,0.041l-2.945,1.75l-2.505-1.464v-3.425c0-0.043-0.019-0.08-0.025-0.122  c-0.009-0.069-0.018-0.136-0.041-0.201c-0.021-0.062-0.051-0.115-0.083-0.17c-0.031-0.056-0.062-0.107-0.104-0.156  c-0.046-0.053-0.1-0.094-0.155-0.136c-0.034-0.025-0.056-0.061-0.093-0.082l-2.995-1.72v-2.888l2.992-1.705  c0.039-0.021,0.062-0.058,0.096-0.084c0.055-0.041,0.108-0.082,0.153-0.134c0.043-0.049,0.074-0.102,0.106-0.157  c0.032-0.055,0.062-0.107,0.083-0.169c0.023-0.065,0.032-0.132,0.041-0.201c0.005-0.043,0.025-0.08,0.025-0.124v-4.047  c0-0.553-0.448-1-1-1s-1,0.447-1,1v3.465l-2.498,1.424l-2.5-1.424v-2.885l2.998-1.716c0.038-0.021,0.061-0.057,0.095-0.083  c0.056-0.042,0.108-0.082,0.154-0.135c0.042-0.049,0.073-0.102,0.105-0.156c0.032-0.056,0.062-0.108,0.083-0.17  c0.023-0.065,0.032-0.132,0.041-0.2c0.005-0.043,0.025-0.08,0.025-0.124V54.48c0-0.044-0.02-0.082-0.025-0.124  c-0.009-0.069-0.018-0.135-0.041-0.2c-0.021-0.062-0.052-0.115-0.084-0.171c-0.032-0.055-0.062-0.107-0.104-0.155  c-0.046-0.053-0.1-0.094-0.155-0.136c-0.034-0.025-0.057-0.062-0.095-0.083l-2.996-1.708v-2.89l2.5-1.428l2.498,1.428v3.471  c0,0.044,0.02,0.082,0.025,0.124c0.009,0.069,0.018,0.136,0.041,0.201c0.021,0.062,0.052,0.114,0.084,0.17  c0.032,0.055,0.062,0.107,0.105,0.155c0.046,0.054,0.1,0.094,0.156,0.137c0.034,0.025,0.057,0.061,0.095,0.082l3.003,1.709v3.467  c0,0.553,0.448,1,1,1s1-0.447,1-1v-3.473l2.455-1.419l3.005,1.712c0.156,0.089,0.326,0.131,0.494,0.131  c0.348,0,0.686-0.182,0.87-0.505c0.273-0.479,0.106-1.091-0.374-1.364l-3.503-1.996c-0.037-0.021-0.078-0.022-0.117-0.038  c-0.063-0.027-0.125-0.052-0.193-0.064c-0.064-0.013-0.126-0.014-0.191-0.013c-0.062,0-0.122,0.001-0.184,0.014  c-0.071,0.014-0.136,0.04-0.203,0.068c-0.036,0.016-0.074,0.017-0.108,0.037l-2.955,1.709l-2.505-1.426v-3.469  c0-0.043-0.019-0.08-0.025-0.123c-0.009-0.069-0.018-0.136-0.041-0.201c-0.021-0.062-0.051-0.114-0.083-0.169  c-0.032-0.056-0.063-0.108-0.105-0.157c-0.046-0.053-0.099-0.093-0.154-0.135c-0.034-0.025-0.057-0.062-0.095-0.083l-2.994-1.712  v-2.889l2.995-1.718c0.037-0.021,0.059-0.056,0.092-0.081c0.057-0.042,0.11-0.084,0.156-0.137c0.042-0.049,0.073-0.101,0.105-0.155  c0.032-0.056,0.062-0.109,0.083-0.171c0.023-0.065,0.032-0.132,0.041-0.201c0.006-0.042,0.025-0.078,0.025-0.122v-3.463l2.505-1.426  l2.456,1.42v3.469c0,0.553,0.448,1,1,1s1-0.447,1-1v-4.045c0-0.043-0.019-0.08-0.024-0.122c-0.009-0.068-0.018-0.134-0.041-0.199  c-0.021-0.062-0.051-0.116-0.084-0.172c-0.031-0.055-0.062-0.105-0.104-0.153c-0.046-0.055-0.101-0.097-0.157-0.14  c-0.033-0.024-0.054-0.059-0.09-0.079l-3.452-1.996c-0.036-0.021-0.076-0.022-0.114-0.039c-0.063-0.027-0.125-0.052-0.193-0.065  c-0.066-0.013-0.129-0.015-0.195-0.015c-0.061,0-0.119,0.001-0.18,0.012c-0.072,0.014-0.137,0.039-0.204,0.067  c-0.036,0.016-0.074,0.017-0.109,0.036l-3.509,1.996c-0.038,0.021-0.061,0.057-0.095,0.082c-0.056,0.043-0.109,0.083-0.156,0.137  c-0.042,0.048-0.073,0.101-0.105,0.155s-0.062,0.108-0.084,0.17c-0.023,0.065-0.032,0.132-0.041,0.201  c-0.005,0.042-0.025,0.08-0.025,0.124v3.466l-2.497,1.433L11.884,39.8v-2.884l2.996-1.708c0.038-0.021,0.061-0.058,0.095-0.083  c0.056-0.042,0.109-0.083,0.155-0.136c0.042-0.048,0.073-0.101,0.104-0.155c0.032-0.056,0.063-0.109,0.084-0.171  c0.023-0.065,0.032-0.131,0.041-0.2c0.005-0.042,0.025-0.08,0.025-0.124v-3.47l2.498-1.432l3.012,1.721c0,0,0.001,0.001,0.002,0.001  c0.053,0.03,0.109,0.048,0.166,0.068c0.107,0.037,0.217,0.062,0.327,0.062c0,0,0,0,0.001,0s0,0,0.001,0  c0.119,0,0.238-0.029,0.354-0.073c0.048-0.019,0.098-0.034,0.143-0.06c0.001-0.001,0.003-0.001,0.004-0.002l2.954-1.715l2.499,1.43  v3.469c0,0.044,0.02,0.081,0.025,0.124c0.009,0.069,0.018,0.135,0.041,0.2c0.021,0.062,0.052,0.115,0.084,0.171  c0.032,0.055,0.062,0.106,0.104,0.154c0.046,0.054,0.101,0.096,0.157,0.138c0.033,0.025,0.056,0.06,0.093,0.081l2.995,1.708v2.886  l-2.997,1.718c-0.037,0.021-0.059,0.056-0.092,0.081c-0.057,0.042-0.11,0.084-0.156,0.137c-0.042,0.049-0.073,0.101-0.105,0.155  c-0.032,0.056-0.062,0.109-0.083,0.171c-0.023,0.065-0.032,0.132-0.041,0.201c-0.006,0.042-0.025,0.078-0.025,0.122v3.468  l-2.499,1.427l-2.456-1.423v-3.472c0-0.553-0.448-1-1-1s-1,0.447-1,1v4.048c0,0.043,0.019,0.079,0.024,0.121  c0.008,0.069,0.018,0.135,0.041,0.201c0.021,0.061,0.051,0.114,0.083,0.169c0.032,0.056,0.063,0.107,0.105,0.157  c0.045,0.052,0.098,0.093,0.154,0.136c0.033,0.024,0.055,0.06,0.092,0.081l3.452,2c0.001,0.001,0.002,0.001,0.003,0.001  c0.06,0.034,0.124,0.057,0.188,0.078c0.102,0.033,0.206,0.056,0.31,0.056c0,0,0,0,0.001,0s0,0,0.001,0  c0.1,0,0.201-0.021,0.299-0.052c0.067-0.021,0.133-0.045,0.194-0.08c0,0,0.001,0,0.001,0l3.007-1.717l2.5,1.429v3.471  c0,0.044,0.02,0.082,0.025,0.124c0.009,0.069,0.018,0.135,0.041,0.201c0.021,0.062,0.052,0.115,0.085,0.171  c0.032,0.055,0.062,0.106,0.104,0.154c0.046,0.053,0.1,0.094,0.156,0.137c0.034,0.025,0.057,0.061,0.095,0.082l3,1.708v2.888  l-2.505,1.432l-3.003-1.72c-0.037-0.021-0.078-0.022-0.117-0.039c-0.063-0.026-0.124-0.05-0.191-0.063  c-0.063-0.013-0.125-0.015-0.189-0.014c-0.064-0.001-0.125,0.001-0.188,0.014c-0.068,0.013-0.13,0.037-0.193,0.064  c-0.038,0.016-0.079,0.018-0.115,0.038l-3.503,2.004c-0.038,0.021-0.061,0.057-0.094,0.083c-0.056,0.042-0.109,0.082-0.155,0.135  c-0.042,0.049-0.073,0.102-0.105,0.156c-0.032,0.056-0.062,0.108-0.083,0.17c-0.023,0.066-0.032,0.132-0.041,0.201  c-0.005,0.042-0.025,0.079-0.025,0.123v3.469l-2.952,1.704c-0.037,0.021-0.059,0.057-0.093,0.082  c-0.056,0.042-0.108,0.083-0.154,0.136c-0.042,0.049-0.073,0.101-0.105,0.155c-0.032,0.056-0.062,0.109-0.083,0.171  c-0.022,0.065-0.032,0.132-0.04,0.2c-0.006,0.042-0.025,0.079-0.025,0.122v4.049c0,0.043,0.019,0.079,0.024,0.121  c0.008,0.068,0.018,0.134,0.041,0.199c0.021,0.062,0.05,0.115,0.083,0.171c0.031,0.056,0.062,0.106,0.104,0.155  c0.046,0.053,0.099,0.095,0.154,0.137c0.033,0.025,0.054,0.06,0.091,0.081l3.452,2.008c0.001,0.001,0.003,0.001,0.005,0.002  c0.056,0.032,0.117,0.053,0.178,0.074c0.105,0.035,0.212,0.06,0.319,0.06c0,0,0,0,0.001,0s0,0,0.001,0  c0.084,0,0.17-0.011,0.254-0.033s0.165-0.056,0.241-0.1c0,0,0,0,0,0l3.503-2.008c0.479-0.274,0.645-0.886,0.371-1.364  c-0.275-0.479-0.886-0.646-1.365-0.37l-3.002,1.721l-2.456-1.429V67.15l2.952-1.704c0.038-0.021,0.06-0.057,0.093-0.082  c0.056-0.042,0.108-0.083,0.154-0.136c0.042-0.049,0.073-0.101,0.105-0.155c0.032-0.056,0.062-0.109,0.083-0.171  c0.022-0.065,0.032-0.132,0.041-0.2c0.005-0.042,0.024-0.079,0.024-0.122v-3.467l2.502-1.432l3.002,1.72  c0,0,0.001,0.001,0.002,0.001c0.017,0.01,0.036,0.014,0.053,0.021c0.142,0.07,0.292,0.109,0.44,0.109c0,0,0,0,0.001,0s0,0,0.001,0  c0.108,0,0.215-0.024,0.321-0.061c0.059-0.021,0.119-0.04,0.174-0.071c0,0,0,0,0,0l3.506-2.004c0.038-0.021,0.06-0.057,0.093-0.081  c0.057-0.043,0.11-0.084,0.157-0.138c0.042-0.048,0.072-0.1,0.104-0.154c0.032-0.056,0.063-0.109,0.084-0.171  c0.023-0.065,0.032-0.132,0.041-0.2c0.005-0.043,0.025-0.08,0.025-0.124V54.48c0-0.044-0.02-0.082-0.025-0.124  c-0.009-0.069-0.018-0.135-0.041-0.201c-0.021-0.062-0.052-0.115-0.085-0.171c-0.032-0.055-0.062-0.106-0.104-0.154  c-0.046-0.054-0.1-0.094-0.156-0.137c-0.034-0.025-0.057-0.061-0.095-0.082l-3-1.708v-3.47c0-0.044-0.02-0.081-0.025-0.124  c-0.009-0.068-0.018-0.135-0.041-0.2c-0.021-0.062-0.052-0.115-0.084-0.171c-0.032-0.055-0.062-0.106-0.104-0.154  c-0.046-0.054-0.1-0.095-0.157-0.138c-0.034-0.024-0.056-0.06-0.093-0.081l-2.995-1.712v-2.889l2.997-1.718  c0.037-0.021,0.059-0.056,0.092-0.081c0.057-0.042,0.11-0.084,0.156-0.137c0.042-0.049,0.073-0.101,0.105-0.155  c0.032-0.056,0.062-0.109,0.083-0.171c0.023-0.065,0.032-0.132,0.041-0.201c0.006-0.042,0.025-0.078,0.025-0.122v-4.045  c0-0.044-0.02-0.081-0.025-0.124c-0.009-0.068-0.018-0.135-0.041-0.2c-0.021-0.062-0.052-0.115-0.084-0.171  c-0.032-0.055-0.062-0.106-0.104-0.154c-0.046-0.054-0.101-0.096-0.158-0.138c-0.033-0.025-0.055-0.06-0.092-0.081l-2.995-1.708  V30.87l2.996-1.716c0.479-0.274,0.645-0.886,0.371-1.365c-0.274-0.479-0.885-0.643-1.365-0.371l-3.002,1.72l-3.006-1.72  c-0.037-0.021-0.078-0.022-0.117-0.039c-0.065-0.027-0.127-0.052-0.196-0.064c-0.062-0.012-0.122-0.013-0.185-0.013  c-0.065,0-0.127,0.001-0.192,0.014c-0.068,0.014-0.129,0.039-0.193,0.066c-0.038,0.016-0.079,0.018-0.116,0.039l-2.955,1.715  l-2.504-1.43v-2.887l2.504-1.43l2.955,1.715c0.001,0.001,0.003,0.001,0.005,0.002c0.043,0.024,0.09,0.038,0.136,0.057  c0.117,0.046,0.238,0.076,0.36,0.076c0,0,0,0,0.001,0s0,0,0.001,0c0.124,0,0.247-0.031,0.367-0.079  c0.042-0.017,0.086-0.029,0.125-0.052c0.001,0,0.002,0,0.003-0.001l3.006-1.72l3.002,1.72c0,0,0.001,0,0.002,0.001  c0.017,0.01,0.036,0.013,0.053,0.021c0.142,0.07,0.292,0.109,0.44,0.109c0,0,0,0,0.001,0s0,0,0.001,0  c0.108,0,0.215-0.024,0.321-0.061c0.059-0.021,0.119-0.04,0.174-0.071c0,0,0,0,0,0l3.006-1.718l2.958,1.715  c0.001,0.001,0.002,0.001,0.003,0.001c0.051,0.03,0.107,0.048,0.163,0.068c0.11,0.039,0.222,0.065,0.334,0.065c0,0,0,0,0.001,0  s0,0,0.001,0c0.119,0,0.237-0.029,0.353-0.073c0.047-0.019,0.096-0.032,0.14-0.058c0.001,0,0.002,0,0.003-0.001l3.005-1.72  l2.495,1.431v3.468c0,0.044,0.019,0.08,0.025,0.122c0.009,0.07,0.018,0.137,0.041,0.203c0.021,0.061,0.051,0.113,0.083,0.168  c0.032,0.056,0.063,0.108,0.105,0.157c0.046,0.053,0.099,0.093,0.154,0.135c0.034,0.026,0.057,0.062,0.095,0.083l3,1.716v2.888  l-2.503,1.426l-3-1.713c-0.48-0.274-1.09-0.107-1.364,0.372s-0.107,1.091,0.372,1.364l3.495,1.996l0,0  c0.07,0.04,0.145,0.069,0.222,0.091c0.09,0.026,0.182,0.041,0.273,0.041c0,0,0,0,0.001,0s0,0,0.001,0  c0.084,0,0.17-0.011,0.254-0.033c0.038-0.01,0.071-0.029,0.107-0.044c0.045-0.017,0.09-0.029,0.133-0.054l3.504-1.996  c0.039-0.022,0.062-0.058,0.096-0.084c0.055-0.042,0.108-0.082,0.153-0.134c0.043-0.049,0.074-0.102,0.106-0.158  c0.032-0.055,0.062-0.106,0.083-0.167c0.023-0.066,0.032-0.134,0.041-0.203c0.005-0.042,0.025-0.079,0.025-0.123V30.29  c0-0.044-0.019-0.081-0.025-0.122c-0.009-0.07-0.018-0.137-0.041-0.203c-0.021-0.061-0.051-0.113-0.083-0.168  c-0.032-0.056-0.063-0.108-0.105-0.157c-0.046-0.053-0.099-0.093-0.154-0.135c-0.034-0.026-0.057-0.062-0.095-0.083l-3-1.716v-3.467  c0-0.044-0.019-0.08-0.025-0.122c-0.009-0.069-0.018-0.136-0.041-0.201c-0.021-0.062-0.051-0.115-0.083-0.171  c-0.032-0.055-0.062-0.106-0.105-0.155c-0.046-0.053-0.1-0.095-0.156-0.137c-0.033-0.025-0.055-0.06-0.092-0.081l-3.495-2.004  c-0.035-0.021-0.074-0.021-0.11-0.036c-0.067-0.029-0.132-0.055-0.203-0.067c-0.06-0.012-0.116-0.013-0.176-0.014  c-0.068-0.001-0.132,0.001-0.2,0.015c-0.065,0.013-0.124,0.036-0.186,0.062c-0.039,0.017-0.081,0.019-0.119,0.04l-3.002,1.718  l-2.958-1.715c-0.036-0.021-0.076-0.022-0.113-0.038c-0.066-0.028-0.129-0.054-0.199-0.067c-0.061-0.012-0.119-0.013-0.18-0.014  c-0.067-0.001-0.131,0.001-0.198,0.014c-0.065,0.013-0.125,0.037-0.187,0.062c-0.04,0.017-0.083,0.018-0.121,0.04l-3.009,1.72  l-2.5-1.432v-2.868l2.5-1.442l3.006,1.731c0.001,0,0.002,0.001,0.002,0.001c0.063,0.036,0.132,0.062,0.201,0.083  c0.015,0.005,0.028,0.014,0.042,0.018c0.009,0.002,0.019,0.001,0.028,0.003c0.074,0.018,0.149,0.029,0.224,0.029c0,0,0,0,0.001,0  s0,0,0.001,0c0.057,0,0.115-0.013,0.171-0.022c0.027-0.005,0.056-0.004,0.083-0.011c0.02-0.005,0.039-0.018,0.059-0.024  c0.063-0.021,0.127-0.043,0.186-0.077c0.001-0.001,0.003-0.001,0.005-0.002l3.456-2.02c0.036-0.021,0.058-0.056,0.09-0.08  c0.056-0.042,0.108-0.084,0.154-0.137c0.042-0.049,0.073-0.102,0.105-0.156c0.032-0.056,0.061-0.108,0.082-0.17  c0.023-0.066,0.032-0.132,0.041-0.201c0.005-0.041,0.024-0.077,0.024-0.119v-3.448l2.501-1.447l2.496,1.447v2.871l-2.996,1.73  c-0.478,0.276-0.642,0.889-0.365,1.366c0.185,0.321,0.521,0.5,0.867,0.5c0.17,0,0.342-0.043,0.5-0.134l3.495-2.02  c0.038-0.021,0.061-0.058,0.094-0.083c0.055-0.042,0.107-0.082,0.152-0.134c0.042-0.05,0.074-0.103,0.106-0.158  c0.032-0.055,0.061-0.107,0.083-0.169c0.022-0.065,0.032-0.132,0.041-0.201c0.005-0.041,0.024-0.078,0.024-0.121v-3.448l2.5-1.445  l2.953,1.731c0.002,0.001,0.004,0.001,0.006,0.003c0.055,0.031,0.114,0.052,0.174,0.072c0.023,0.009,0.047,0.022,0.071,0.029  c0.032,0.009,0.065,0.008,0.098,0.013c0.052,0.009,0.104,0.021,0.155,0.021c0.001,0,0.001,0,0.002,0l0,0  c0.118,0,0.234-0.028,0.349-0.071c0.049-0.019,0.099-0.034,0.145-0.06c0.002-0.001,0.005-0.002,0.007-0.003l3.005-1.737l2.503,1.447  v3.448c0,0.044,0.02,0.082,0.025,0.124c0.009,0.069,0.018,0.135,0.041,0.2c0.021,0.062,0.052,0.115,0.084,0.171  c0.031,0.055,0.062,0.107,0.104,0.155c0.046,0.053,0.1,0.094,0.155,0.136c0.034,0.025,0.057,0.062,0.096,0.083l3.375,1.925  c0.179,0.143,0.396,0.226,0.621,0.226c0.172,0,0.346-0.044,0.505-0.137l2.948-1.727l2.498,1.44v3.448  c0,0.044,0.02,0.081,0.024,0.123c0.009,0.069,0.018,0.136,0.04,0.202c0.021,0.061,0.053,0.114,0.084,0.169  c0.032,0.056,0.063,0.107,0.105,0.156c0.047,0.053,0.101,0.095,0.157,0.137c0.033,0.025,0.056,0.06,0.093,0.081l3.006,1.716v2.887  l-3.006,1.716c-0.037,0.021-0.06,0.056-0.093,0.081c-0.057,0.042-0.11,0.084-0.157,0.137c-0.042,0.049-0.073,0.101-0.105,0.156  c-0.031,0.055-0.062,0.108-0.084,0.169c-0.022,0.066-0.031,0.133-0.04,0.202c-0.005,0.042-0.024,0.079-0.024,0.123v3.468  l-2.998,1.708c-0.038,0.021-0.061,0.058-0.096,0.084c-0.055,0.041-0.107,0.082-0.153,0.134c-0.043,0.049-0.074,0.102-0.106,0.157  c-0.031,0.055-0.062,0.108-0.083,0.169c-0.023,0.066-0.032,0.132-0.041,0.201c-0.005,0.042-0.024,0.08-0.024,0.124v3.47L63.27,41.23  l-3-1.719c-0.037-0.021-0.078-0.022-0.117-0.038c-0.064-0.027-0.126-0.051-0.193-0.064c-0.062-0.012-0.12-0.013-0.182-0.014  c-0.067,0-0.131,0.002-0.197,0.015c-0.064,0.013-0.123,0.036-0.185,0.062c-0.04,0.017-0.082,0.019-0.12,0.04l-3.504,2.006  c-0.038,0.021-0.061,0.057-0.094,0.083c-0.057,0.042-0.109,0.082-0.155,0.135c-0.042,0.049-0.073,0.101-0.104,0.156  c-0.033,0.056-0.063,0.108-0.084,0.17c-0.023,0.065-0.032,0.132-0.041,0.2c-0.006,0.043-0.025,0.08-0.025,0.124v4.048  c0,0.044,0.02,0.081,0.025,0.123c0.009,0.069,0.018,0.136,0.041,0.202c0.021,0.061,0.051,0.114,0.084,0.169  c0.031,0.055,0.062,0.107,0.104,0.156c0.047,0.053,0.101,0.095,0.157,0.137c0.033,0.025,0.056,0.06,0.093,0.081l2.999,1.712v2.889  l-2.998,1.709c-0.039,0.021-0.062,0.058-0.097,0.084c-0.056,0.041-0.108,0.081-0.153,0.134c-0.043,0.049-0.074,0.102-0.106,0.157  c-0.032,0.055-0.062,0.107-0.083,0.168c-0.023,0.066-0.032,0.134-0.041,0.203c-0.006,0.042-0.025,0.079-0.025,0.123v3.469  l-2.501,1.43l-2.458-1.426V54.48c0-0.044-0.02-0.081-0.025-0.123c-0.009-0.069-0.018-0.137-0.041-0.203  c-0.021-0.061-0.051-0.113-0.083-0.168c-0.032-0.056-0.063-0.108-0.106-0.157c-0.045-0.053-0.098-0.093-0.153-0.134  c-0.035-0.026-0.058-0.062-0.096-0.084l-3.504-1.996c-0.481-0.274-1.09-0.106-1.364,0.374c-0.273,0.48-0.106,1.091,0.374,1.364  l2.999,1.709v2.887l-3,1.716c-0.038,0.021-0.061,0.058-0.095,0.083c-0.056,0.042-0.108,0.082-0.154,0.135  c-0.042,0.049-0.074,0.102-0.105,0.157c-0.032,0.055-0.062,0.107-0.083,0.169c-0.023,0.065-0.032,0.132-0.041,0.201  c-0.006,0.043-0.025,0.08-0.025,0.123v4.025c0,0.008-0.004,0.015-0.004,0.021c0,0.053,0.023,0.102,0.032,0.153  c0.009,0.056,0.016,0.109,0.034,0.163c0.008,0.022,0.007,0.048,0.017,0.07c0.017,0.04,0.049,0.07,0.071,0.107  c0.032,0.056,0.063,0.108,0.106,0.157c0.015,0.018,0.022,0.04,0.039,0.057c0,0.001,0,0.001,0.001,0.002  c0.021,0.021,0.053,0.031,0.076,0.05c0.012,0.011,0.027,0.018,0.04,0.027c0.034,0.025,0.057,0.061,0.094,0.082l2.998,1.705v3.467  c0,0.043,0.019,0.079,0.024,0.12c0.009,0.069,0.019,0.135,0.041,0.2c0.021,0.062,0.051,0.116,0.083,0.172  c0.031,0.055,0.062,0.105,0.104,0.154c0.047,0.054,0.1,0.096,0.156,0.139c0.033,0.024,0.054,0.059,0.09,0.079l2.958,1.719v3.423  c0,0.553,0.447,1,1,1c0.552,0,1-0.447,1-1v-3.998c0-0.043-0.02-0.079-0.024-0.12c-0.009-0.069-0.019-0.135-0.041-0.2  c-0.021-0.062-0.051-0.116-0.083-0.172c-0.031-0.055-0.062-0.105-0.104-0.154c-0.047-0.054-0.1-0.096-0.156-0.139  c-0.033-0.024-0.054-0.059-0.09-0.079l-2.958-1.719V67.15l2.955-1.704c0.479-0.275,0.643-0.888,0.366-1.365  c-0.275-0.479-0.887-0.645-1.365-0.367l-2.959,1.706l-2.5-1.422v-2.885l2.5-1.43l2.957,1.715c0.001,0.001,0.003,0.001,0.004,0.002  c0.047,0.027,0.1,0.043,0.15,0.062c0.113,0.042,0.229,0.07,0.346,0.07c0.001,0,0.001,0,0.002,0l0,0c0.115,0,0.23-0.027,0.343-0.069  c0.051-0.019,0.103-0.034,0.15-0.062c0.001,0,0.002,0,0.003-0.001l3.008-1.72l3.008,1.72c0.156,0.09,0.327,0.132,0.496,0.132  c0.347,0,0.684-0.181,0.869-0.504c0.273-0.479,0.107-1.09-0.372-1.364l-3.001-1.716v-2.887l3-1.709  c0.038-0.021,0.061-0.058,0.096-0.084c0.055-0.041,0.107-0.082,0.153-0.134c0.043-0.049,0.074-0.103,0.106-0.158  c0.032-0.055,0.062-0.106,0.083-0.167c0.023-0.066,0.032-0.134,0.041-0.203c0.005-0.042,0.024-0.079,0.024-0.123v-4.051  c0-0.044-0.02-0.081-0.024-0.123c-0.009-0.069-0.018-0.136-0.04-0.202c-0.021-0.061-0.053-0.114-0.084-0.169  c-0.032-0.055-0.063-0.107-0.105-0.156c-0.047-0.053-0.101-0.095-0.157-0.137c-0.033-0.025-0.056-0.06-0.093-0.081l-3-1.712v-2.888  l2.504-1.434l3.004,1.722c0.002,0.001,0.003,0.001,0.004,0.002c0.064,0.035,0.133,0.061,0.203,0.082  c0.096,0.029,0.192,0.048,0.289,0.048c0.001,0,0.001,0,0.002,0l0,0c0.104,0,0.207-0.021,0.309-0.055  c0.064-0.021,0.129-0.045,0.189-0.079c0.002-0.001,0.003-0.001,0.004-0.002l2.95-1.715l3.001,1.719c0.001,0,0.002,0,0.003,0.001  c0.017,0.01,0.036,0.013,0.054,0.021c0.141,0.07,0.291,0.109,0.439,0.109c0.001,0,0.001,0,0.002,0l0,0  c0.108,0,0.216-0.024,0.321-0.061c0.06-0.021,0.119-0.04,0.174-0.071c0,0,0,0,0.001,0l3.014-1.722l2.498,1.433v3.455  c0,0.004-0.002,0.007-0.002,0.01c0,0.131,0.027,0.261,0.078,0.383c0.027,0.067,0.075,0.121,0.116,0.181  c0.033,0.048,0.055,0.104,0.095,0.146c0.19,0.19,0.45,0.3,0.711,0.3c0.133,0,0.266-0.03,0.389-0.084  c0.121-0.051,0.229-0.124,0.32-0.216l0,0c0.002-0.002,0.003-0.004,0.004-0.006c0.091-0.092,0.162-0.2,0.212-0.321  c0.007-0.019,0.005-0.038,0.012-0.056c0.035-0.103,0.065-0.208,0.065-0.323v-4.048c0-0.044-0.02-0.08-0.025-0.122  c-0.009-0.069-0.018-0.136-0.041-0.201c-0.021-0.062-0.051-0.115-0.083-0.171c-0.032-0.055-0.062-0.106-0.104-0.155  c-0.047-0.053-0.1-0.095-0.156-0.137c-0.033-0.025-0.056-0.06-0.093-0.081l-2.995-1.718v-2.886l2.993-1.708  c0.037-0.021,0.06-0.056,0.093-0.081c0.057-0.042,0.11-0.084,0.157-0.137c0.042-0.049,0.073-0.101,0.104-0.156  c0.033-0.055,0.062-0.108,0.084-0.169c0.023-0.066,0.032-0.133,0.041-0.202c0.006-0.042,0.025-0.079,0.025-0.123V30.29  c0-0.083-0.029-0.157-0.048-0.234c-0.012-0.05-0.011-0.102-0.03-0.149c-0.024-0.06-0.068-0.105-0.104-0.158  c-0.037-0.057-0.062-0.119-0.111-0.168c-0.025-0.026-0.063-0.037-0.093-0.06c-0.171-0.137-0.379-0.23-0.614-0.23  c-0.205,0-0.384,0.076-0.542,0.181c-0.058,0.036-0.122,0.061-0.171,0.109c-0.066,0.07-0.111,0.156-0.156,0.242  c-0.016,0.029-0.041,0.052-0.054,0.083c-0.051,0.122-0.079,0.254-0.079,0.385c0,0.003,0.002,0.006,0.002,0.01v3.459l-2.993,1.708  c-0.037,0.021-0.06,0.056-0.093,0.081c-0.057,0.042-0.11,0.084-0.157,0.137c-0.042,0.049-0.073,0.101-0.104,0.156  c-0.033,0.055-0.062,0.108-0.084,0.169c-0.023,0.066-0.032,0.133-0.041,0.202c-0.006,0.042-0.025,0.079-0.025,0.123V39.8  l-2.51,1.434L67.723,39.8v-2.884l2.996-1.708c0.039-0.021,0.062-0.058,0.097-0.084c0.056-0.041,0.108-0.082,0.153-0.134  c0.043-0.049,0.074-0.102,0.105-0.157c0.033-0.055,0.062-0.108,0.084-0.169c0.023-0.066,0.032-0.132,0.041-0.201  c0.006-0.043,0.025-0.08,0.025-0.124V30.87l3.006-1.716c0.037-0.021,0.06-0.056,0.093-0.081c0.057-0.042,0.11-0.084,0.157-0.137  c0.042-0.049,0.073-0.101,0.105-0.156c0.031-0.055,0.062-0.108,0.084-0.169c0.022-0.066,0.031-0.133,0.04-0.202  c0.005-0.042,0.024-0.079,0.024-0.123v-3.468l2.497-1.431l2.501,1.432v3.456c0,0.005-0.002,0.01-0.002,0.015  c0,0.048,0.021,0.093,0.028,0.14c0.009,0.059,0.017,0.114,0.035,0.17c0.009,0.024,0.007,0.051,0.017,0.073  c0.018,0.04,0.049,0.069,0.07,0.105c0.031,0.055,0.062,0.106,0.104,0.155c0.046,0.053,0.099,0.095,0.154,0.137  c0.033,0.025,0.056,0.06,0.092,0.081l2.96,1.715v2.896l-2.959,1.707c-0.037,0.021-0.059,0.057-0.092,0.082  c-0.057,0.042-0.109,0.083-0.154,0.136c-0.042,0.049-0.073,0.101-0.105,0.155c-0.031,0.056-0.062,0.109-0.083,0.171  c-0.022,0.065-0.032,0.132-0.04,0.2c-0.006,0.042-0.025,0.079-0.025,0.122v4.045c0,0.553,0.448,1,1,1c0.553,0,1-0.447,1-1v-3.468  l2.461-1.42l2.498,1.424V39.8l-2.998,1.718c-0.037,0.021-0.061,0.058-0.095,0.084c-0.025,0.019-0.056,0.031-0.079,0.053  c-0.012,0.011-0.028,0.015-0.039,0.025c-0.018,0.018-0.024,0.041-0.039,0.06c-0.041,0.048-0.07,0.1-0.102,0.153  c-0.022,0.038-0.055,0.07-0.072,0.111c-0.008,0.019-0.006,0.04-0.012,0.059c-0.022,0.065-0.031,0.131-0.04,0.199  c-0.006,0.043-0.026,0.083-0.026,0.128c0,0.002,0.002,0.003,0.002,0.005v3.463l-2.959,1.711c-0.036,0.021-0.057,0.055-0.09,0.079  c-0.057,0.043-0.111,0.085-0.157,0.14c-0.042,0.048-0.072,0.099-0.104,0.152c-0.032,0.057-0.062,0.11-0.084,0.173  c-0.022,0.065-0.032,0.131-0.04,0.199c-0.006,0.042-0.025,0.079-0.025,0.122v3.47l-2.996,1.708  c-0.037,0.021-0.061,0.058-0.095,0.083c-0.056,0.042-0.109,0.083-0.155,0.136c-0.042,0.048-0.072,0.101-0.104,0.155  c-0.032,0.056-0.063,0.109-0.085,0.171c-0.022,0.065-0.031,0.131-0.04,0.2c-0.005,0.042-0.024,0.08-0.024,0.124v3.47l-2.994,1.716  c-0.037,0.021-0.059,0.056-0.092,0.08c-0.057,0.043-0.111,0.084-0.158,0.138c-0.042,0.049-0.072,0.101-0.104,0.155  c-0.033,0.056-0.063,0.108-0.084,0.17c-0.023,0.066-0.032,0.133-0.041,0.201c-0.006,0.043-0.025,0.08-0.025,0.123v3.464  l-3.004,1.705c-0.039,0.022-0.062,0.058-0.097,0.084c-0.056,0.042-0.108,0.082-0.154,0.135c-0.042,0.048-0.073,0.101-0.104,0.154  c-0.033,0.057-0.063,0.11-0.085,0.172c-0.022,0.065-0.032,0.131-0.04,0.199c-0.006,0.043-0.025,0.081-0.025,0.126v3.47l-3,1.72  c-0.037,0.021-0.059,0.056-0.092,0.081c-0.057,0.042-0.11,0.084-0.156,0.137c-0.043,0.049-0.074,0.101-0.105,0.155  c-0.032,0.056-0.062,0.109-0.084,0.171c-0.022,0.065-0.031,0.132-0.04,0.201c-0.006,0.042-0.024,0.079-0.024,0.122v3.998  c0,0.553,0.447,1,1,1c0.552,0,1-0.447,1-1v-3.419l2.502-1.435l3.014,1.724c0,0,0.001,0,0.002,0.001  c0.054,0.03,0.112,0.05,0.171,0.07c0.106,0.036,0.214,0.061,0.323,0.061l0,0c0.001,0,0.001,0,0.002,0  c0.084,0,0.17-0.011,0.254-0.033s0.165-0.056,0.241-0.099c0.001-0.001,0.001-0.001,0.001-0.001l3.498-2.008  c0.479-0.275,0.644-0.886,0.369-1.365c-0.275-0.479-0.885-0.644-1.365-0.369l-3,1.723l-2.51-1.436v-2.886l3.004-1.705  c0.039-0.022,0.062-0.058,0.097-0.084c0.056-0.042,0.108-0.082,0.154-0.135c0.042-0.048,0.073-0.101,0.104-0.155  c0.033-0.056,0.063-0.109,0.085-0.171c0.022-0.065,0.032-0.131,0.04-0.199c0.006-0.043,0.025-0.081,0.025-0.126v-3.468l2.994-1.716  c0.037-0.021,0.059-0.056,0.092-0.08c0.057-0.043,0.111-0.084,0.158-0.139c0.042-0.048,0.072-0.1,0.104-0.154  c0.033-0.056,0.063-0.108,0.084-0.17c0.023-0.066,0.032-0.133,0.041-0.201c0.006-0.043,0.025-0.08,0.025-0.123v-3.468l2.996-1.708  c0.037-0.021,0.061-0.058,0.095-0.083c0.056-0.042,0.109-0.083,0.155-0.136c0.042-0.048,0.072-0.101,0.104-0.155  c0.032-0.056,0.063-0.108,0.085-0.171c0.022-0.065,0.031-0.131,0.04-0.2c0.005-0.042,0.024-0.08,0.024-0.124V49.01l2.461-1.423  l2.498,1.427v2.89l-2.996,1.708c-0.037,0.021-0.061,0.058-0.095,0.083c-0.056,0.042-0.109,0.083-0.155,0.136  c-0.042,0.048-0.072,0.101-0.104,0.155c-0.032,0.056-0.063,0.109-0.085,0.171c-0.022,0.065-0.031,0.131-0.04,0.2  c-0.005,0.042-0.024,0.08-0.024,0.124v3.473l-2.96,1.715c-0.036,0.021-0.059,0.056-0.091,0.081  c-0.057,0.042-0.109,0.084-0.155,0.137c-0.042,0.049-0.073,0.101-0.104,0.155c-0.032,0.056-0.062,0.109-0.083,0.171  c-0.022,0.065-0.032,0.131-0.04,0.2c-0.006,0.041-0.025,0.078-0.025,0.121v4.047c0,0.553,0.448,1,1,1c0.553,0,1-0.447,1-1v-3.471  l2.96-1.715c0.036-0.021,0.059-0.056,0.092-0.081c0.056-0.042,0.108-0.084,0.154-0.137c0.042-0.049,0.073-0.101,0.104-0.155  c0.032-0.056,0.062-0.109,0.083-0.171c0.022-0.065,0.032-0.131,0.04-0.2c0.006-0.041,0.025-0.078,0.025-0.121v-3.468l2.996-1.708  c0.037-0.021,0.061-0.058,0.095-0.083c0.056-0.042,0.109-0.083,0.155-0.136c0.042-0.048,0.072-0.101,0.104-0.155  c0.032-0.056,0.063-0.108,0.085-0.171c0.022-0.065,0.031-0.131,0.04-0.2c0.005-0.042,0.024-0.08,0.024-0.124v-4.051  c0-0.044-0.02-0.081-0.024-0.124c-0.009-0.068-0.018-0.135-0.04-0.2c-0.021-0.062-0.053-0.115-0.084-0.17  c-0.032-0.056-0.063-0.107-0.105-0.156c-0.047-0.053-0.1-0.094-0.156-0.136c-0.033-0.025-0.056-0.061-0.094-0.082l-2.996-1.712  v-2.888l2.998-1.718c0.036-0.021,0.058-0.055,0.09-0.08c0.039-0.028,0.086-0.045,0.121-0.078c0.017-0.018,0.023-0.043,0.039-0.062  c0.042-0.049,0.072-0.101,0.104-0.155c0.032-0.055,0.062-0.107,0.084-0.169c0.022-0.066,0.031-0.133,0.04-0.202  c0.006-0.042,0.024-0.078,0.024-0.122v-4.045c0-0.044-0.02-0.082-0.024-0.124C88.658,36.142,88.649,36.076,88.627,36.011z"/></svg>
