<?xml version="1.0" standalone="no"?>
<!DOCTYPE svg PUBLIC "-//W3C//DTD SVG 20010904//EN"
 "http://www.w3.org/TR/2001/REC-SVG-20010904/DTD/svg10.dtd">
<svg version="1.0" xmlns="http://www.w3.org/2000/svg"
 width="512.000000pt" height="512.000000pt" viewBox="0 0 512.000000 512.000000"
 preserveAspectRatio="xMidYMid meet">

<g transform="translate(0.000000,512.000000) scale(0.100000,-0.100000)"
fill="#000000" stroke="none">
<path d="M2733 4890 c-115 -24 -221 -108 -267 -210 l-27 -60 -659 0 -659 0
-51 51 c-29 29 -78 63 -118 82 -62 30 -74 32 -172 32 -145 -1 -200 -23 -296
-119 -96 -97 -118 -152 -119 -296 0 -98 3 -110 32 -170 33 -67 82 -126 142
-171 l35 -26 -132 -1524 c-94 -1085 -136 -1525 -144 -1528 -30 -10 -117 -105
-142 -155 -120 -237 20 -518 282 -566 152 -27 305 41 394 176 23 35 49 66 58
69 8 2 495 128 1081 279 l1066 275 49 -47 c278 -266 733 -110 794 271 11 72 1
171 -24 232 l-14 32 435 579 434 579 63 20 c119 38 189 110 223 224 41 143
-32 303 -172 372 -42 20 -65 24 -141 24 l-90 1 -495 429 c-935 812 -919 798
-925 825 -29 150 -110 251 -239 302 -54 21 -147 29 -202 18z m-300 -421 c9
-73 48 -151 107 -209 66 -67 143 -102 237 -108 72 -5 73 -5 77 -36 3 -17 21
-197 41 -401 19 -203 37 -384 40 -400 4 -27 1 -31 -28 -41 -17 -7 -46 -17 -62
-24 -31 -13 -32 -12 -395 270 -391 304 -1244 967 -1270 987 -12 10 118 12 616
13 l631 0 6 -51z m1389 -615 c359 -312 659 -572 667 -580 12 -11 9 -17 -17
-39 -27 -23 -77 -111 -96 -168 -5 -16 -38 -17 -552 -15 l-546 3 -13 38 c-30
87 -116 169 -191 183 -41 8 -34 -31 -79 439 -20 204 -38 391 -42 417 -5 46 -5
47 34 67 53 27 137 120 158 176 10 25 19 45 21 45 2 0 297 -255 656 -566z
m-1942 -18 c819 -635 865 -672 863 -682 -2 -5 -12 -36 -24 -69 -15 -43 -20
-74 -16 -110 l5 -51 -433 -98 -432 -97 -55 55 c-66 65 -133 90 -229 84 l-60
-3 -254 574 -254 574 38 27 c77 56 144 164 157 251 10 74 10 74 52 43 20 -16
309 -240 642 -498z m-1045 125 c33 4 63 5 67 1 9 -10 508 -1142 508 -1153 0
-6 -10 -20 -21 -32 -38 -39 -69 -118 -69 -176 0 -74 16 -120 62 -181 l39 -51
-367 -662 c-201 -364 -375 -676 -385 -693 l-19 -31 -62 14 c-38 9 -85 13 -118
9 l-56 -5 3 32 c4 41 253 2921 253 2928 0 3 24 2 53 -1 28 -4 79 -4 112 1z
m3545 -1028 c0 -33 47 -120 85 -158 21 -20 60 -47 86 -60 l49 -22 -407 -542
-406 -541 -50 49 c-54 53 -145 104 -215 120 -24 5 -46 11 -49 14 -2 3 -78 218
-168 477 l-164 472 47 47 c30 28 57 68 72 104 l24 57 548 0 c515 0 548 -1 548
-17z m-1585 -143 c47 -48 126 -80 199 -80 l53 0 153 -447 c84 -247 155 -453
158 -460 2 -7 -9 -15 -25 -18 -64 -15 -123 -37 -165 -64 l-46 -29 -253 155
c-140 85 -428 260 -641 390 -386 234 -387 235 -377 261 6 15 13 51 17 81 l7
54 435 98 c239 53 437 98 440 98 3 1 24 -17 45 -39z m-445 -745 c305 -186 587
-358 627 -382 l72 -44 -30 -42 c-67 -96 -94 -243 -64 -357 9 -36 17 -74 18
-84 2 -17 -61 -35 -573 -167 -316 -82 -784 -203 -1038 -269 -255 -66 -466
-120 -469 -120 -3 0 -3 6 0 14 11 27 -12 139 -39 193 -15 31 -46 76 -70 101
l-44 46 386 696 385 696 68 -4 c53 -3 78 1 119 18 28 12 57 29 63 37 7 7 17
12 23 10 6 -3 261 -157 566 -342z"/>
<path d="M775 3206 c-15 -11 -19 -27 -20 -72 0 -53 2 -59 27 -73 26 -15 29
-14 48 4 28 28 31 122 5 141 -24 18 -36 18 -60 0z"/>
<path d="M740 2888 c-7 -17 -90 -783 -90 -830 0 -4 7 -14 16 -22 19 -19 58
-21 72 -3 6 7 30 200 53 429 47 454 47 448 -12 448 -21 0 -32 -7 -39 -22z"/>
</g>
</svg>
